<?xml version="1.0" encoding="utf-8"?>
<!-- Generator: Adobe Illustrator 25.2.3, SVG Export Plug-In . SVG Version: 6.00 Build 0)  -->
<svg version="1.1" id="Layer_1" xmlns="http://www.w3.org/2000/svg" xmlns:xlink="http://www.w3.org/1999/xlink" x="0px" y="0px"
	 viewBox="0 0 1080 1080" style="enable-background:new 0 0 1080 1080;" xml:space="preserve">
<style type="text/css">
	.st0{fill:#F05E22;}
	.st1{font-family:'SegoeUI-Semibold';}
	.st2{font-size:197.1078px;}
	.st3{letter-spacing:27;}
	.st4{letter-spacing:21;}
	.st5{letter-spacing:29;}
	.st6{fill:none;stroke:#F05E22;stroke-width:8;stroke-miterlimit:10;}
	.st7{font-size:48.8827px;}
	.st8{letter-spacing:-3;}
</style>
<text transform="matrix(1 0 0 1 57.123 393.4531)"><tspan x="0" y="0" class="st0 st1 st2 st3">CAR</tspan><tspan x="460.3" y="0" class="st0 st1 st2 st4">L</tspan><tspan x="578.3" y="0" class="st0 st1 st2 st3">O</tspan><tspan x="754.9" y="0" class="st0 st1 st2">W</tspan></text>
<text transform="matrix(1 0 0 1 57.123 574.1367)"><tspan x="0" y="0" class="st0 st1 st2 st5">C</tspan><tspan x="152" y="0" class="st0 st1 st2 st5">AR</tspan><tspan x="466.6" y="0" class="st0 st1 st2 st5">B</tspan><tspan x="615.2" y="0" class="st0 st1 st2 st5">O</tspan><tspan x="793.9" y="0" class="st0 st1 st2">N</tspan></text>
<text transform="matrix(1 0 0 1 57.123 754.8164)"><tspan x="0" y="0" class="st0 st1 st2 st4">FU</tspan><tspan x="280.2" y="0" class="st0 st1 st2 st4">T</tspan><tspan x="410.4" y="0" class="st0 st1 st2 st4">URE</tspan><tspan x="837.6" y="0" class="st0 st1 st2">S</tspan></text>
<line class="st6" x1="20.8" y1="502.4" x2="1039.2" y2="502.4"/>
<text transform="matrix(1 0 0 1 53.6582 831.1406)"><tspan x="0" y="0" class="st0 st1 st7 st8">V</tspan><tspan x="28.2" y="0" class="st0 st1 st7">ol. 2</tspan></text>
</svg>
